<svg width="448" height="512" viewBox="0 0 448 512" fill="none" xmlns="http://www.w3.org/2000/svg">
<path d="M144 80H112C94.3 80 80 94.4 80 112V144C80 161.6 94.3 176 112 176H144C161.7 176 176 161.6 176 144V112C176 94.4 161.7 80 144 80ZM144 144H112V112H144V144ZM416 0H32C14.3 0 0 14.4 0 32V480C0 497.6 14.3 512 32 512H416C433.7 512 448 497.6 448 480V32C448 14.4 433.7 0 416 0ZM416 480H32V32H416V480ZM344 240H216C211.6 240 208 243.6 208 248V264C208 268.4 211.6 272 216 272H344C348.4 272 352 268.4 352 264V248C352 243.6 348.4 240 344 240ZM144 336H112C94.3 336 80 350.4 80 368V400C80 417.6 94.3 432 112 432H144C161.7 432 176 417.6 176 400V368C176 350.4 161.7 336 144 336ZM144 400H112V368H144V400ZM344 368H216C211.6 368 208 371.6 208 376V392C208 396.4 211.6 400 216 400H344C348.4 400 352 396.4 352 392V376C352 371.6 348.4 368 344 368ZM344 112H216C211.6 112 208 115.6 208 120V136C208 140.4 211.6 144 216 144H344C348.4 144 352 140.4 352 136V120C352 115.6 348.4 112 344 112ZM144 208H112C94.3 208 80 222.4 80 240V272C80 289.6 94.3 304 112 304H144C161.7 304 176 289.6 176 272V240C176 222.4 161.7 208 144 208ZM144 272H112V240H144V272Z" fill="#919191"/>
</svg>
