<svg width="512" height="512" viewBox="0 0 512 512" fill="none" xmlns="http://www.w3.org/2000/svg">
<path d="M482.696 299.276L450.086 280.449C452.136 264.214 452.136 247.785 450.086 231.55L482.696 212.723C492.272 207.195 496.891 195.821 493.742 185.222C482.528 147.473 462.567 113.494 436.207 85.6269C428.573 77.5569 416.39 75.7909 406.77 81.3449L374.208 100.143C361.183 90.2306 346.958 82.0054 331.869 75.6629V38.0489C331.869 26.9189 324.217 17.2449 313.385 14.6819C275.741 5.77288 236.267 5.77188 198.615 14.6819C187.784 17.2449 180.131 26.9179 180.131 38.0489V75.6629C165.042 82.0051 150.816 90.2304 137.792 100.143L105.23 81.3449C95.609 75.7909 83.426 77.5569 75.793 85.6269C49.433 113.494 29.472 147.474 18.258 185.222C15.109 195.821 19.728 207.194 29.304 212.723L61.914 231.55C59.864 247.785 59.864 264.214 61.914 280.449L29.304 299.276C19.728 304.804 15.109 316.178 18.258 326.777C29.472 364.525 49.433 398.505 75.793 426.372C83.427 434.442 95.61 436.208 105.23 430.655L137.792 411.857C150.816 421.769 165.042 429.994 180.131 436.336V473.95C180.131 485.08 187.783 494.754 198.615 497.317C236.26 506.226 275.733 506.227 313.385 497.317C324.216 494.754 331.869 485.081 331.869 473.95V436.336C346.957 429.994 361.183 421.769 374.208 411.857L406.77 430.655C416.39 436.209 428.573 434.443 436.207 426.372C462.567 398.505 482.528 364.525 493.742 326.777C496.891 316.178 492.272 304.805 482.696 299.276V299.276ZM417.217 399.737L370.908 372.997C343.92 396.068 334.349 401.873 299.869 414.056V467.535C270.928 473.505 241.072 473.505 212.131 467.535V414.056C178.51 402.177 168.776 396.661 141.092 372.997L94.783 399.737C75.073 377.647 60.094 351.748 50.854 323.779L97.183 297.039C90.648 261.622 90.645 250.395 97.183 214.96L50.854 188.22C60.094 160.251 75.074 134.351 94.783 112.251L141.092 139.011C168.469 115.577 178.155 109.946 212.131 97.9419V44.4639C241.071 38.4839 270.929 38.4839 299.869 44.4639V97.9429C333.847 109.948 343.534 115.58 370.908 139.012L417.217 112.252C436.926 134.351 451.906 160.251 461.146 188.221L414.817 214.961C421.353 250.387 421.355 261.605 414.817 297.04L461.146 323.78C451.906 351.748 436.927 377.648 417.217 399.737V399.737ZM256 160C203.065 160 160 203.065 160 256C160 308.935 203.065 352 256 352C308.935 352 352 308.935 352 256C352 203.065 308.935 160 256 160ZM256 320C220.71 320 192 291.29 192 256C192 220.71 220.71 192 256 192C291.29 192 320 220.71 320 256C320 291.29 291.29 320 256 320Z" fill="#919191"/>
</svg>
