<svg width="448" height="512" viewBox="0 0 448 512" fill="none" xmlns="http://www.w3.org/2000/svg">
<path d="M215 99.5L207.9 106.6C203.2 111.3 203.2 118.9 207.9 123.6L323.9 239H12C5.4 239 0 244.4 0 251V261C0 267.6 5.4 273 12 273H323.9L208 388.4C203.3 393.1 203.3 400.7 208 405.4L215.1 412.5C219.8 417.2 227.4 417.2 232.1 412.5L380.6 264.5C385.3 259.8 385.3 252.2 380.6 247.5L232 99.5C227.3 94.8 219.7 94.8 215 99.5ZM448 76V436C448 442.6 442.6 448 436 448H428C421.4 448 416 442.6 416 436V76C416 69.4 421.4 64 428 64H436C442.6 64 448 69.4 448 76Z" fill="#FD3535"/>
</svg>
