<svg width="512" height="449" viewBox="0 0 512 449" fill="none" xmlns="http://www.w3.org/2000/svg">
<path d="M290.053 59.1284L290.062 59.119C333.906 13.8803 403.489 7.76177 449.325 46.8199C449.326 46.8207 449.327 46.8215 449.328 46.8223C503.212 92.8239 506.117 175.655 457.737 225.582L457.733 225.586L264.237 425.382C264.236 425.384 264.234 425.385 264.233 425.386C259.593 430.171 252.308 430.171 247.667 425.386C247.666 425.385 247.664 425.384 247.663 425.382L54.1753 225.595C5.87861 175.665 8.78669 92.8205 62.6773 46.8181C108.521 7.75527 178.193 13.8926 221.924 59.1047L221.936 59.1166L221.947 59.1284L241.647 79.4284L256 94.2182L270.353 79.4284L290.053 59.1284Z" fill="#FD3535" stroke="white" stroke-width="40"/>
</svg>
