<svg width="512" height="512" viewBox="0 0 512 512" fill="none" xmlns="http://www.w3.org/2000/svg">
<g clip-path="url(#clip0)">
<path d="M319.8 204V212C319.8 218.6 314.4 224 307.8 224H223.8V308C223.8 314.6 218.4 320 211.8 320H203.8C197.2 320 191.8 314.6 191.8 308V224H107.8C101.2 224 95.8 218.6 95.8 212V204C95.8 197.4 101.2 192 107.8 192H191.8V108C191.8 101.4 197.2 96 203.8 96H211.8C218.4 96 223.8 101.4 223.8 108V192H307.8C314.4 192 319.8 197.4 319.8 204ZM508.3 497L497 508.3C492.3 513 484.7 513 480 508.3L351 379.3C348.7 377 347.5 374 347.5 370.8V362.3C310.6 395.7 261.7 416 208 416C93.8 416 1.5 324.9 -5.88596e-07 210.7C-1.5 93.7 93.7 -1.49997 210.7 2.9929e-05C324.9 1.50003 416 93.8 416 208C416 261.7 395.7 310.6 362.3 347.5H370.8C374 347.5 377 348.8 379.3 351L508.3 480C513 484.7 513 492.3 508.3 497ZM384 208C384 110.7 305.3 32 208 32C110.7 32 32 110.7 32 208C32 305.3 110.7 384 208 384C305.3 384 384 305.3 384 208Z" fill="white"/>
</g>
<defs>
<clipPath id="clip0">
<rect width="512" height="512" fill="white"/>
</clipPath>
</defs>
</svg>
