<svg width="577" height="577" viewBox="0 0 577 577" fill="none" xmlns="http://www.w3.org/2000/svg">
<g clip-path="url(#clip0)">
<path d="M377.6 385C348.9 385 335.1 401 288 401C240.9 401 227.2 385 198.4 385C124.2 385 64 445.2 64 519.4V561C64 587.5 85.5 609 112 609H464C490.5 609 512 587.5 512 561V519.4C512 445.2 451.8 385 377.6 385ZM480 561C480 569.8 472.8 577 464 577H112C103.2 577 96 569.8 96 561V519.4C96 462.9 141.9 417 198.4 417C218 417 237.5 433 288 433C338.4 433 358 417 377.6 417C434.1 417 480 462.9 480 519.4V561ZM288 353C358.7 353 416 295.7 416 225C416 154.3 358.7 97 288 97C217.3 97 160 154.3 160 225C160 295.7 217.3 353 288 353ZM288 129C340.9 129 384 172.1 384 225C384 277.9 340.9 321 288 321C235.1 321 192 277.9 192 225C192 172.1 235.1 129 288 129Z" fill="white"/>
</g>
<defs>
<clipPath id="clip0">
<rect width="577" height="577" fill="white"/>
</clipPath>
</defs>
</svg>
