<svg width="209" height="209" viewBox="0 0 209 209" fill="none" xmlns="http://www.w3.org/2000/svg">
<path fill-rule="evenodd" clip-rule="evenodd" d="M155.257 77.6286C155.257 34.7537 120.503 0 77.6286 0C34.7537 0 0 34.7537 0 77.6286C0 120.503 34.7537 155.257 77.6286 155.257C96.8566 155.257 114.532 148.211 128.147 136.626L131.371 139.851V149.286L191.086 209L209 191.086L149.286 131.371H139.851L136.626 128.147C148.211 114.532 155.257 96.8566 155.257 77.6286ZM23.8852 77.6291C23.8852 47.772 47.7709 23.8863 77.6281 23.8863C107.485 23.8863 131.371 47.772 131.371 77.6291C131.371 107.486 107.485 131.372 77.6281 131.372C47.7709 131.372 23.8852 107.486 23.8852 77.6291Z" fill="#757575" fill-opacity="0.6"/>
</svg>
