<svg width="512" height="512" viewBox="0 0 512 512" fill="none" xmlns="http://www.w3.org/2000/svg">
<path d="M444.788 291.1L487.404 315.699C492.271 318.508 494.53 324.317 492.863 329.684C481.793 365.326 462.893 397.526 438.174 424.27C436.324 426.272 433.848 427.586 431.153 427.996C428.458 428.406 425.703 427.886 423.342 426.524L380.758 401.929C362.841 417.28 342.242 429.19 319.999 437.059V486.241C319.999 488.969 319.071 491.615 317.366 493.745C315.662 495.875 313.283 497.361 310.622 497.959C275.666 505.809 238.123 506.215 201.403 497.966C195.913 496.733 192 491.87 192 486.243V437.059C169.756 429.191 149.158 417.281 131.241 401.929L88.657 426.524C86.2957 427.886 83.5413 428.406 80.846 427.996C78.1507 427.586 75.6749 426.272 73.825 424.27C49.107 397.526 30.206 365.326 19.136 329.684C17.469 324.318 19.728 318.509 24.595 315.699L67.212 291.1C62.9315 267.896 62.9315 244.105 67.212 220.901L24.596 196.302C19.729 193.493 17.47 187.684 19.137 182.317C30.207 146.675 49.107 114.475 73.826 87.7309C75.6759 85.7284 78.1518 84.4144 80.847 84.0048C83.5423 83.5952 86.2967 84.1143 88.658 85.4769L131.242 110.072C149.159 94.7203 169.758 82.8105 192.001 74.9419V25.7589C192.001 23.0311 192.929 20.3846 194.634 18.2549C196.338 16.1251 198.717 14.6389 201.378 14.0409C236.334 6.19089 273.877 5.78489 310.597 14.0339C316.087 15.2669 320 20.1299 320 25.7569V74.9409C342.244 82.809 362.842 94.7189 380.759 110.071L423.343 85.4759C425.704 84.1133 428.459 83.5942 431.154 84.0038C433.849 84.4134 436.325 85.7274 438.175 87.7299C462.893 114.474 481.794 146.674 492.864 182.316C494.531 187.682 492.272 193.491 487.405 196.301L444.788 220.9C449.068 244.104 449.068 267.896 444.788 291.1V291.1ZM336 256C336 211.888 300.112 176 256 176C211.888 176 176 211.888 176 256C176 300.112 211.888 336 256 336C300.112 336 336 300.112 336 256Z" fill="#FD3535"/>
</svg>
