<svg width="512" height="512" viewBox="0 0 512 512" fill="none" xmlns="http://www.w3.org/2000/svg">
<g clip-path="url(#clip0)">
<path d="M511.99 32.01C511.99 10.3 490.89 -4.99997 470.39 1.50003L150.4 96C137.1 100.2 128 112.5 128 126.5V387.92C117.95 385.54 107.28 384 96 384C42.98 384 0 412.65 0 448C0 483.35 42.98 512 96 512C149.02 512 192 483.35 192 448V214.31L448 139.29V323.92C437.95 321.54 427.28 320 416 320C362.98 320 320 348.65 320 384C320 419.35 362.98 448 416 448C469.02 448 512 419.35 512 384L511.99 32.01V32.01Z" fill="#FD3535"/>
</g>
<defs>
<clipPath id="clip0">
<rect width="512" height="512" fill="white"/>
</clipPath>
</defs>
</svg>
