<svg width="55" height="10" viewBox="0 0 55 10" fill="none" xmlns="http://www.w3.org/2000/svg">
<path d="M4.24805 0.420022C5.14405 0.420022 5.83605 0.644022 6.32405 1.09202C6.81205 1.53202 7.05605 2.12802 7.05605 2.88002V3.09602C7.05605 3.64802 6.92405 4.10802 6.66005 4.47602C6.40405 4.83602 6.05205 5.10802 5.60405 5.29202L7.11605 7.96802C7.22805 8.16802 7.24805 8.35602 7.17605 8.53202C7.11205 8.70802 6.98805 8.84002 6.80405 8.92802C6.62005 9.01602 6.43205 9.04802 6.24005 9.02402C6.04805 9.00002 5.90005 8.88402 5.79605 8.67602L4.15205 5.53202C4.11205 5.54002 4.06805 5.54402 4.02005 5.54402C3.97205 5.54402 3.92805 5.54402 3.88805 5.54402H2.50805V8.36402C2.50805 8.59602 2.43205 8.76402 2.28005 8.86802C2.12805 8.97202 1.94805 9.02402 1.74005 9.02402C1.53205 9.02402 1.35205 8.97202 1.20005 8.86802C1.04805 8.76402 0.972046 8.59602 0.972046 8.36402V1.41602C0.972046 1.04002 1.04405 0.780022 1.18805 0.636022C1.34005 0.492022 1.60805 0.420022 1.99205 0.420022H4.24805ZM2.50805 4.26002H3.91205C4.49605 4.26002 4.91205 4.16002 5.16005 3.96002C5.40805 3.76002 5.53205 3.46402 5.53205 3.07202V2.91602C5.53205 2.51602 5.41205 2.21602 5.17205 2.01602C4.94005 1.80802 4.56405 1.70402 4.04405 1.70402H2.50805V4.26002Z" fill="white"/>
<path d="M14.0059 0.420022C14.1899 0.420022 14.3219 0.484022 14.4019 0.612022C14.4899 0.732022 14.5339 0.880022 14.5339 1.05602C14.5339 1.22402 14.4899 1.37202 14.4019 1.50002C14.3219 1.62802 14.1899 1.69202 14.0059 1.69202H10.4179V3.96002H13.7659C13.9419 3.96002 14.0699 4.02402 14.1499 4.15202C14.2379 4.27202 14.2819 4.41602 14.2819 4.58402C14.2819 4.75202 14.2379 4.90002 14.1499 5.02802C14.0699 5.14802 13.9419 5.20802 13.7659 5.20802H10.4179V7.68002H14.0899C14.2739 7.68002 14.4059 7.74402 14.4859 7.87202C14.5739 8.00002 14.6179 8.14802 14.6179 8.31602C14.6179 8.49202 14.5739 8.64402 14.4859 8.77202C14.4059 8.89202 14.2739 8.95202 14.0899 8.95202H9.91392C9.52992 8.95202 9.26192 8.88002 9.10992 8.73602C8.96592 8.59202 8.89392 8.33202 8.89392 7.95602V1.41602C8.89392 1.04002 8.96592 0.780022 9.10992 0.636022C9.26192 0.492022 9.52992 0.420022 9.91392 0.420022H14.0059Z" fill="white"/>
<path d="M20.3227 1.74002C20.5947 1.74002 20.8187 1.83202 20.9947 2.01602C21.1787 2.19202 21.2707 2.41602 21.2707 2.68802C21.2707 2.96002 21.1787 3.18802 20.9947 3.37202C20.8187 3.54802 20.5947 3.63602 20.3227 3.63602C20.0507 3.63602 19.8227 3.54802 19.6387 3.37202C19.4627 3.18802 19.3747 2.96002 19.3747 2.68802C19.3747 2.41602 19.4627 2.19202 19.6387 2.01602C19.8227 1.83202 20.0507 1.74002 20.3227 1.74002ZM20.3227 6.42002C20.5947 6.42002 20.8187 6.51202 20.9947 6.69602C21.1787 6.87202 21.2707 7.09602 21.2707 7.36802C21.2707 7.64002 21.1787 7.86802 20.9947 8.05202C20.8187 8.22802 20.5947 8.31602 20.3227 8.31602C20.0507 8.31602 19.8227 8.22802 19.6387 8.05202C19.4627 7.86802 19.3747 7.64002 19.3747 7.36802C19.3747 7.09602 19.4627 6.87202 19.6387 6.69602C19.8227 6.51202 20.0507 6.42002 20.3227 6.42002Z" fill="white"/>
<path d="M31.49 0.420022C31.674 0.420022 31.81 0.484022 31.898 0.612022C31.986 0.740022 32.03 0.892022 32.03 1.06802C32.03 1.24402 31.986 1.39602 31.898 1.52402C31.81 1.65202 31.674 1.71602 31.49 1.71602H27.926V4.12802H31.238C31.422 4.12802 31.558 4.19202 31.646 4.32002C31.734 4.44802 31.778 4.60002 31.778 4.77602C31.778 4.95202 31.734 5.10402 31.646 5.23202C31.558 5.36002 31.422 5.42402 31.238 5.42402H27.926V8.36402C27.926 8.59602 27.85 8.76402 27.698 8.86802C27.546 8.97202 27.366 9.02402 27.158 9.02402C26.95 9.02402 26.77 8.97202 26.618 8.86802C26.466 8.76402 26.39 8.59602 26.39 8.36402V1.41602C26.39 1.04002 26.462 0.780022 26.606 0.636022C26.758 0.492022 27.026 0.420022 27.41 0.420022H31.49Z" fill="white"/>
<path d="M38.4747 0.420022C38.6587 0.420022 38.7907 0.484022 38.8707 0.612022C38.9587 0.732022 39.0027 0.880022 39.0027 1.05602C39.0027 1.22402 38.9587 1.37202 38.8707 1.50002C38.7907 1.62802 38.6587 1.69202 38.4747 1.69202H34.8867V3.96002H38.2347C38.4107 3.96002 38.5387 4.02402 38.6187 4.15202C38.7067 4.27202 38.7507 4.41602 38.7507 4.58402C38.7507 4.75202 38.7067 4.90002 38.6187 5.02802C38.5387 5.14802 38.4107 5.20802 38.2347 5.20802H34.8867V7.68002H38.5587C38.7427 7.68002 38.8747 7.74402 38.9547 7.87202C39.0427 8.00002 39.0867 8.14802 39.0867 8.31602C39.0867 8.49202 39.0427 8.64402 38.9547 8.77202C38.8747 8.89202 38.7427 8.95202 38.5587 8.95202H34.3827C33.9987 8.95202 33.7307 8.88002 33.5787 8.73602C33.4347 8.59202 33.3627 8.33202 33.3627 7.95602V1.41602C33.3627 1.04002 33.4347 0.780022 33.5787 0.636022C33.7307 0.492022 33.9987 0.420022 34.3827 0.420022H38.4747Z" fill="white"/>
<path d="M43.8195 0.348022C44.0275 0.348022 44.2075 0.396022 44.3595 0.492022C44.5115 0.588022 44.6435 0.776022 44.7555 1.05602L47.4555 8.01602C47.5435 8.24802 47.5435 8.44802 47.4555 8.61602C47.3675 8.78402 47.2235 8.90002 47.0235 8.96402C46.8235 9.02802 46.6235 9.03602 46.4235 8.98802C46.2315 8.94002 46.0915 8.78802 46.0035 8.53202L45.3075 6.61202H42.2835L41.5755 8.58002C41.4875 8.81202 41.3515 8.95202 41.1675 9.00002C40.9915 9.04002 40.8075 9.02802 40.6155 8.96402C40.4235 8.90002 40.2835 8.79202 40.1955 8.64002C40.1075 8.48802 40.1075 8.30002 40.1955 8.07602L42.8955 1.05602C42.9995 0.776022 43.1275 0.588022 43.2795 0.492022C43.4395 0.396022 43.6195 0.348022 43.8195 0.348022ZM43.7955 2.26802C43.7315 2.50802 43.6675 2.72402 43.6035 2.91602C43.5475 3.10002 43.4715 3.32802 43.3755 3.60002L42.7395 5.34002H44.8515L44.2275 3.60002C44.1235 3.32002 44.0395 3.08002 43.9755 2.88002C43.9195 2.68002 43.8595 2.47602 43.7955 2.26802Z" fill="white"/>
<path d="M53.643 0.420022C53.827 0.420022 53.963 0.484022 54.051 0.612022C54.139 0.740022 54.183 0.892022 54.183 1.06802C54.183 1.24402 54.139 1.39602 54.051 1.52402C53.963 1.65202 53.827 1.71602 53.643 1.71602H51.579V8.36402C51.579 8.59602 51.503 8.76402 51.351 8.86802C51.199 8.97202 51.019 9.02402 50.811 9.02402C50.603 9.02402 50.423 8.97202 50.271 8.86802C50.119 8.76402 50.043 8.59602 50.043 8.36402V1.71602H47.967C47.783 1.71602 47.647 1.65202 47.559 1.52402C47.471 1.39602 47.427 1.24402 47.427 1.06802C47.427 0.892022 47.471 0.740022 47.559 0.612022C47.647 0.484022 47.783 0.420022 47.967 0.420022H53.643Z" fill="white"/>
</svg>
